<?xml version="1.0" standalone="no"?>
<!DOCTYPE svg PUBLIC "-//W3C//DTD SVG 20010904//EN"
 "http://www.w3.org/TR/2001/REC-SVG-20010904/DTD/svg10.dtd">
<svg version="1.0" xmlns="http://www.w3.org/2000/svg"
 width="1024.000000pt" height="1024.000000pt" viewBox="0 0 1024.000000 1024.000000"
 preserveAspectRatio="xMidYMid meet">

<g transform="translate(0.000000,1024.000000) scale(0.100000,-0.100000)"
fill="#000000" stroke="none">
<path d="M6396 8072 c21 -16 100 -105 175 -198 74 -93 162 -202 195 -243 32
-41 77 -96 98 -124 l39 -50 -29 5 c-16 3 -141 29 -279 57 -249 52 -327 61
-375 43 -18 -7 -3 -8 50 -5 61 4 113 -3 275 -37 250 -51 367 -80 380 -91 5 -5
13 -9 17 -9 4 0 -34 51 -85 113 -50 62 -164 203 -252 314 -139 175 -214 253
-241 253 -4 0 11 -13 32 -28z"/>
<path d="M5984 7476 c-195 -76 -224 -92 -246 -136 -23 -45 -26 -264 -4 -295
11 -16 12 -51 6 -175 -4 -85 -8 -143 -8 -127 -1 15 -7 27 -13 27 -6 0 -9 -6
-6 -13 3 -7 -1 -24 -8 -37 -8 -15 -10 -33 -5 -51 11 -38 35 -71 45 -61 4 4 5
-1 2 -11 -4 -11 -3 -16 3 -12 6 3 10 3 10 -2 0 -8 104 -139 337 -425 149 -183
214 -235 311 -246 34 -4 41 -7 28 -14 -13 -8 -15 -13 -5 -24 6 -7 16 -11 22
-7 6 4 8 0 4 -10 -4 -11 -2 -14 9 -10 8 3 26 -8 44 -27 16 -17 34 -29 39 -26
5 3 11 -3 14 -14 3 -11 6 -24 7 -28 5 -20 22 -42 32 -42 6 0 3 10 -8 21 -19
22 -19 22 3 10 12 -6 28 -9 35 -8 7 2 10 2 6 0 -12 -7 -9 -20 9 -38 14 -14 14
-18 2 -26 -8 -5 -9 -9 -3 -9 14 0 37 27 40 47 4 23 10 25 25 6 12 -15 12 -16
-1 -9 -8 4 -6 0 4 -8 16 -13 22 -13 29 -3 6 8 7 4 4 -11 -5 -20 -3 -22 11 -10
9 7 13 8 10 3 -9 -15 19 -48 33 -39 9 5 10 2 5 -12 -4 -10 -4 -15 0 -11 4 4
13 -1 20 -11 8 -9 14 -12 14 -5 0 6 -4 15 -10 18 -5 3 -10 16 -10 28 1 18 4
16 19 -12 11 -21 21 -30 25 -22 4 6 12 8 18 5 6 -4 5 -10 -3 -16 -11 -8 -11
-9 -1 -6 8 2 13 7 12 12 -1 5 4 12 12 17 10 6 10 11 0 21 -9 9 -12 9 -12 -2 0
-7 -3 -10 -7 -7 -3 4 -11 2 -18 -3 -8 -7 -12 -5 -12 5 0 8 9 15 19 15 21 0 23
11 6 29 -11 10 -10 11 2 6 16 -6 50 -59 50 -78 0 -7 -4 -6 -10 3 -8 13 -10 12
-10 -4 0 -12 5 -16 15 -12 8 3 15 1 15 -4 0 -9 -14 -14 -32 -11 -13 2 -9 -6 9
-20 11 -10 14 -10 9 -1 -4 6 -3 12 3 12 5 0 12 -6 14 -12 4 -10 6 -10 6 0 1 7
5 11 11 7 5 -3 7 -12 4 -20 -5 -12 -1 -12 20 -2 14 7 26 16 26 21 0 5 9 -2 21
-15 11 -13 16 -25 10 -27 -18 -6 -13 -19 9 -25 11 -3 18 -1 14 4 -3 5 0 9 5 9
15 0 14 -27 -1 -33 -7 -2 -9 -8 -5 -13 4 -5 11 -4 15 1 15 22 42 15 57 -15 8
-16 11 -30 6 -30 -6 0 -8 -8 -5 -17 5 -15 4 -16 -5 -3 -10 13 -13 13 -26 -4
-8 -11 -15 -17 -15 -13 0 5 -6 2 -14 -5 -8 -7 -11 -17 -8 -23 3 -5 -1 -4 -10
3 -13 10 -17 10 -22 -3 -3 -8 -11 -15 -18 -15 -10 0 -10 2 0 9 13 8 17 31 10
63 -6 24 -18 35 -18 15 0 -9 -8 -21 -17 -26 -15 -8 -15 -11 -3 -12 8 -1 21 -1
28 0 11 2 11 -2 2 -19 -8 -15 -18 -20 -32 -17 -29 8 -12 -6 25 -21 l32 -12
-32 5 c-18 2 -33 0 -33 -5 0 -6 5 -10 10 -10 6 0 10 -5 10 -10 0 -6 -8 -5 -19
2 -11 7 -18 15 -16 18 2 3 -8 10 -21 17 -13 6 -24 8 -24 3 0 -4 6 -10 14 -13
9 -4 12 -14 9 -27 -3 -11 -8 -19 -11 -16 -2 3 -22 -4 -44 -15 -37 -19 -41 -19
-52 -3 -12 16 -13 16 -19 0 -4 -9 -3 -15 2 -12 5 3 12 -1 15 -10 5 -13 1 -14
-22 -9 -20 4 -34 0 -49 -15 -23 -21 -38 -27 -28 -10 3 6 -1 10 -10 10 -9 0
-13 -5 -10 -10 3 -6 -2 -21 -12 -33 -19 -25 -23 -27 -49 -27 -9 0 -12 -5 -8
-12 4 -7 3 -8 -5 -4 -6 4 -18 2 -26 -4 -8 -7 -24 -10 -34 -7 -11 3 -22 0 -24
-7 -3 -7 -10 -6 -23 4 -17 14 -18 14 -6 -2 8 -10 9 -19 3 -22 -5 -3 -12 0 -14
6 -3 8 -6 6 -6 -4 -1 -10 -12 -20 -26 -24 -14 -3 -22 -11 -18 -17 3 -6 1 -7
-5 -3 -6 4 -23 0 -36 -9 -14 -9 -30 -14 -36 -10 -5 3 -10 3 -10 -2 0 -4 -13
-15 -28 -24 -27 -15 -30 -15 -39 0 -8 13 -10 12 -9 -8 1 -13 -5 -25 -12 -27
-7 -1 -8 0 -2 3 5 2 10 9 10 14 0 6 -11 2 -24 -8 -16 -12 -20 -20 -12 -25 7
-5 4 -8 -9 -9 -44 -4 -86 -20 -79 -30 3 -5 -2 -6 -11 -3 -9 4 -25 -2 -39 -15
-13 -12 -31 -23 -42 -25 -10 -2 -32 -11 -49 -20 -16 -9 -36 -16 -42 -16 -7 0
-13 -4 -13 -10 0 -5 -8 -10 -18 -10 -10 0 -23 -5 -29 -11 -8 -8 -17 -8 -32 0
-17 10 -20 9 -15 -4 3 -8 10 -12 15 -9 5 3 6 -2 3 -10 -3 -9 -10 -13 -15 -10
-5 3 -9 -1 -9 -8 0 -8 -22 -39 -50 -70 -27 -31 -50 -61 -50 -67 0 -6 -3 -11
-7 -11 -5 0 -25 -15 -46 -34 -56 -49 -88 -51 -131 -7 -19 20 -137 171 -263
336 -126 165 -292 381 -369 480 -77 99 -209 270 -294 380 -399 519 -545 707
-577 742 -19 21 -11 7 18 -32 62 -82 621 -808 954 -1240 127 -165 289 -376
360 -470 71 -93 151 -193 178 -221 59 -64 131 -97 207 -98 62 -1 136 29 553
223 131 61 242 111 248 111 6 0 7 -5 3 -12 -4 -7 -3 -8 5 -4 6 4 9 11 6 15 -5
9 -10 7 220 111 94 42 321 146 505 229 476 217 730 344 788 396 52 47 88 109
97 170 10 63 -18 129 -103 240 -143 189 -1129 1422 -1143 1431 -5 3 -9 -57 -9
-139 0 -133 -2 -146 -20 -158 -19 -13 -20 -30 -28 -430 -8 -413 -8 -415 -33
-464 -13 -27 -35 -55 -49 -63 l-25 -14 21 18 c31 27 59 84 34 69 -6 -4 -25 -8
-42 -11 -17 -2 -36 -8 -41 -13 -6 -6 -1 -8 14 -5 13 2 9 -2 -10 -9 -19 -7 -36
-18 -39 -25 -2 -6 -10 -8 -18 -5 -8 3 -14 0 -14 -6 0 -6 -3 -10 -7 -9 -10 2
-43 -10 -63 -23 -8 -5 -22 -12 -30 -16 -8 -4 -24 -15 -34 -25 -11 -10 -28 -18
-38 -18 -10 0 -18 -5 -18 -11 0 -5 5 -7 12 -3 7 5 8 3 4 -5 -5 -7 -14 -10 -20
-8 -7 3 -18 -4 -24 -14 -7 -10 -9 -19 -6 -19 3 0 45 18 92 40 47 22 87 39 89
37 2 -2 -43 -26 -99 -52 -211 -99 -273 -75 -488 190 -44 55 -135 167 -201 248
-66 82 -124 160 -130 173 -5 14 -9 119 -9 233 0 173 -3 211 -15 221 -12 10
-15 38 -15 130 0 64 5 131 11 149 15 42 59 66 253 141 88 33 162 62 164 65 12
12 -23 0 -174 -59z m1164 -321 c62 -77 156 -194 207 -260 52 -66 141 -178 198
-249 67 -83 103 -136 99 -145 -3 -9 -2 -13 3 -9 9 8 35 -9 35 -22 0 -11 -36
-19 -47 -11 -18 12 -23 42 -8 47 8 4 12 11 9 16 -4 6 -14 1 -24 -12 l-17 -23
-5 26 c-4 20 -1 25 13 22 13 -3 16 1 12 12 -4 10 -8 11 -13 4 -9 -15 -60 24
-61 47 0 14 -2 13 -8 -3 -5 -11 -7 -23 -4 -27 2 -5 -1 -8 -7 -8 -7 0 -9 8 -5
19 4 14 -3 24 -30 41 -32 20 -52 41 -22 24 6 -4 4 2 -6 14 -11 11 -16 26 -12
31 6 10 -8 16 -29 12 -5 -1 -6 5 -3 14 5 10 0 15 -14 15 -13 0 -18 -4 -13 -12
4 -7 -2 -5 -13 5 -11 9 -25 17 -33 17 -10 0 -10 3 0 15 7 9 10 18 6 22 -3 3
-6 2 -6 -4 0 -6 -7 -14 -16 -17 -8 -3 -12 -2 -9 4 3 6 -1 13 -10 16 -10 4 -15
14 -12 25 3 12 0 19 -9 19 -8 0 -14 -5 -14 -12 0 -6 -6 -3 -14 7 -8 11 -12 23
-9 27 2 5 -3 11 -11 14 -9 3 -16 12 -16 20 0 8 -10 14 -22 14 -21 0 -21 0 -2
-15 18 -14 18 -14 -7 -13 -21 2 -25 6 -22 28 2 18 1 20 -4 8 -7 -14 -10 -15
-27 -2 -11 8 -15 14 -9 14 6 0 9 9 6 20 -3 11 -10 20 -15 20 -5 0 -7 -4 -4 -8
2 -4 -5 -9 -17 -9 -17 -2 -19 0 -7 7 8 5 11 10 5 10 -5 0 -2 7 8 14 12 9 14
16 8 21 -6 3 -11 2 -11 -3 0 -5 -11 -9 -25 -9 -14 0 -25 3 -25 8 0 5 5 9 11 9
5 0 7 5 4 11 -5 6 -12 4 -21 -8 -13 -17 -13 -17 -14 2 0 17 -2 17 -10 5 -9
-13 -10 -13 -10 0 0 9 -10 15 -25 15 -14 0 -25 -4 -25 -9 0 -5 -3 -6 -6 -3 -4
4 -1 13 6 22 10 12 10 15 0 15 -9 0 -8 6 3 23 13 20 22 116 27 267 0 9 6 5 17
-10 10 -14 69 -88 131 -165z m-85 -202 c-7 -2 -19 -2 -25 0 -7 3 -2 5 12 5 14
0 19 -2 13 -5z m392 -293 c3 -5 1 -10 -5 -10 -6 0 -9 -4 -6 -8 2 -4 -5 -9 -17
-9 -20 -2 -20 -1 -4 8 9 6 15 14 12 20 -4 5 -2 9 4 9 5 0 13 -4 16 -10z m305
-275 c34 -41 59 -79 56 -83 -2 -4 0 -14 6 -22 8 -12 8 -11 3 5 -5 18 -4 18 9
5 42 -43 204 -255 200 -262 -3 -4 -11 -8 -17 -7 -9 0 -9 2 0 6 22 8 -25 62
-49 55 -18 -4 -20 -2 -14 22 5 19 3 25 -4 21 -6 -4 -9 -1 -8 6 2 8 -9 13 -29
13 -17 1 -35 5 -40 10 -4 5 -3 6 4 2 19 -11 23 9 7 33 -9 12 -20 18 -27 14 -8
-5 -8 -2 0 9 15 17 7 29 -13 21 -9 -3 -14 1 -14 12 0 9 -5 13 -11 10 -16 -11
-59 -13 -59 -4 0 5 12 9 27 9 29 0 29 6 -2 12 -11 1 -26 9 -33 16 -8 7 -18 9
-24 6 -7 -4 -8 -2 -4 4 5 8 15 8 33 1 26 -10 26 -9 10 9 -20 22 -22 48 -4 55
7 3 6 6 -5 6 -9 1 -20 -3 -23 -9 -10 -16 -28 -12 -21 5 3 8 1 15 -5 15 -6 0
-8 7 -5 16 5 14 4 15 -8 5 -11 -10 -19 -10 -33 -1 -16 10 -16 11 0 6 13 -4 17
0 17 17 0 18 -2 19 -10 7 -6 -9 -10 -10 -10 -3 0 9 24 31 37 33 1 0 29 -34 63
-75z m-69 -28 c-10 -9 -11 -8 -5 6 3 10 9 15 12 12 3 -3 0 -11 -7 -18z m137
-135 c2 -7 -3 -12 -12 -12 -9 0 -16 7 -16 16 0 17 22 14 28 -4z m32 -38 c2 -3
-7 -4 -22 -2 -15 2 -30 7 -34 11 -3 3 6 4 22 1 16 -3 31 -7 34 -10z m-10 -18
c0 -3 -4 -8 -10 -11 -5 -3 -10 -1 -10 4 0 6 5 11 10 11 6 0 10 -2 10 -4z m-5
-36 c-3 -5 -12 -10 -18 -10 -7 0 -6 4 3 10 19 12 23 12 15 0z m85 -17 c0 -7
-6 -13 -13 -13 -8 0 -14 6 -14 13 0 8 6 14 14 14 7 0 13 -6 13 -14z m-1180
-53 c-19 -11 -39 -19 -45 -19 -5 0 6 8 25 19 19 11 40 19 45 19 6 0 -6 -8 -25
-19z m1290 -54 c0 -3 -4 -8 -10 -11 -5 -3 -10 -1 -10 4 0 6 5 11 10 11 6 0 10
-2 10 -4z m65 -57 c26 -33 46 -62 44 -63 -2 -2 -13 0 -24 5 -11 4 -14 8 -7 8
10 1 10 4 0 15 -7 7 -19 11 -25 9 -7 -3 -13 1 -14 8 -1 8 -2 23 -3 34 0 12 -8
19 -18 19 -10 -1 -14 4 -11 12 3 8 7 14 8 14 2 0 25 -27 50 -61z m73 -104 c-3
-3 -9 2 -12 12 -6 14 -5 15 5 6 7 -7 10 -15 7 -18z m-1638 -25 c13 -8 13 -10
-2 -10 -9 0 -20 5 -23 10 -8 13 5 13 25 0z m55 -50 c3 -6 -1 -7 -9 -4 -18 7
-21 14 -7 14 6 0 13 -4 16 -10z m59 -8 c2 -4 -5 -9 -17 -9 -17 -2 -19 0 -7 7
18 12 18 12 24 2z m23 -52 c-2 -24 -10 -25 -26 -6 -9 11 -9 15 1 19 23 9 27 7
25 -13z m188 -40 c3 -5 2 -10 -4 -10 -5 0 -13 5 -16 10 -3 6 -2 10 4 10 5 0
13 -4 16 -10z m102 -44 c-3 -8 -1 -17 6 -20 7 -2 2 -5 -10 -5 -34 -1 -29 31 6
38 2 1 1 -5 -2 -13z m46 -22 c-7 -19 -10 -18 -16 5 -3 13 -1 18 9 14 7 -2 10
-11 7 -19z m45 -8 c-17 -12 -17 -14 2 -31 11 -10 22 -26 25 -36 4 -12 16 -19
33 -19 15 0 41 -9 57 -20 17 -11 25 -20 18 -20 -6 0 -14 4 -17 9 -8 13 -76 19
-77 6 0 -5 -3 -3 -6 5 -3 8 -17 25 -30 38 -13 12 -21 27 -18 32 3 6 2 10 -3
10 -6 0 -13 7 -16 16 -3 8 -2 13 2 10 4 -2 14 -1 22 5 22 13 27 10 8 -5z m61
-47 c4 6 12 7 21 1 11 -7 12 -10 2 -10 -7 0 -10 -4 -7 -10 3 -5 -2 -10 -12
-10 -12 0 -23 12 -31 33 -17 47 -14 58 5 19 9 -18 19 -29 22 -23z m-149 37 c0
-2 -7 -7 -16 -10 -8 -3 -12 -2 -9 4 6 10 25 14 25 6z m30 -16 c0 -5 -4 -10
-10 -10 -5 0 -10 5 -10 10 0 6 5 10 10 10 6 0 10 -4 10 -10z m173 -104 c16
-13 24 -36 11 -36 -7 0 -44 40 -44 47 0 7 16 2 33 -11z"/>
<path d="M7166 6932 c-3 -5 1 -9 9 -9 8 0 12 4 9 9 -3 4 -7 8 -9 8 -2 0 -6 -4
-9 -8z"/>
<path d="M7270 6846 c0 -2 7 -7 16 -10 8 -3 12 -2 9 4 -6 10 -25 14 -25 6z"/>
<path d="M7329 6803 c-13 -16 -12 -17 4 -4 9 7 17 15 17 17 0 8 -8 3 -21 -13z"/>
<path d="M7374 6753 c2 -10 7 -17 12 -15 13 3 11 25 -3 29 -6 2 -10 -4 -9 -14z"/>
<path d="M7490 6707 c0 -5 5 -17 10 -28 12 -21 1 -26 -18 -7 -9 9 -9 5 0 -14
10 -20 16 -24 25 -16 12 10 17 4 14 -15 -1 -5 3 -6 8 -3 5 4 22 -6 36 -21 22
-23 25 -24 16 -6 -6 12 -21 29 -33 38 -13 8 -30 30 -40 48 -9 17 -17 28 -18
24z"/>
<path d="M7640 6478 c0 -4 7 -8 15 -8 8 0 15 4 15 8 0 5 -7 9 -15 9 -8 0 -15
-4 -15 -9z"/>
<path d="M7890 6193 c13 -18 26 -30 29 -28 3 3 -8 18 -23 33 l-29 27 23 -32z"/>
<path d="M6812 7008 c-40 -17 -71 -33 -69 -35 4 -3 157 55 166 63 14 13 -34
-1 -97 -28z"/>
<path d="M6670 6945 c-14 -8 -20 -14 -15 -14 6 0 21 6 35 14 14 8 21 14 15 14
-5 0 -21 -6 -35 -14z"/>
<path d="M3754 6880 c-11 -4 -43 -34 -70 -66 -67 -79 -100 -114 -106 -114 -3
0 -28 -21 -56 -47 -27 -27 -78 -73 -112 -103 -34 -30 -79 -71 -100 -90 -21
-19 -75 -69 -120 -110 -46 -41 -102 -93 -125 -115 -56 -52 -153 -136 -179
-155 -12 -8 -32 -25 -46 -38 -14 -12 -51 -46 -84 -75 -32 -29 -79 -71 -103
-94 -25 -24 -47 -43 -49 -43 -3 0 -31 -26 -64 -59 -33 -32 -60 -56 -60 -53 0
3 -16 -11 -35 -31 -20 -21 -38 -37 -40 -37 -3 0 -22 -16 -42 -35 -21 -19 -61
-53 -89 -77 -28 -24 -64 -54 -80 -68 -28 -23 -80 -55 -134 -82 -34 -17 -41
-29 -27 -48 6 -8 -6 1 -27 20 -21 19 -46 51 -56 70 -11 19 -19 30 -20 24 0
-20 58 -102 91 -127 85 -65 159 -65 328 -2 148 55 161 61 161 81 0 8 4 12 10
9 5 -3 17 12 26 34 8 21 28 49 44 61 16 13 27 27 24 31 -3 5 -2 9 3 9 4 0 31
20 58 45 82 74 90 80 96 78 3 -1 20 11 38 28 18 16 34 29 36 29 4 0 32 25 80
71 12 10 28 19 37 19 8 0 22 8 29 18 13 16 12 16 -6 3 -11 -8 3 8 30 35 28 28
53 50 56 50 3 -1 18 13 33 29 15 17 25 24 21 18 -3 -7 -1 -13 4 -13 6 0 11 6
11 14 0 8 8 17 18 20 11 4 24 17 31 29 7 13 27 32 44 42 18 10 45 31 61 47 17
15 36 28 43 28 8 0 17 8 20 18 8 20 33 47 44 47 4 0 22 17 40 38 17 20 35 37
40 37 4 0 20 12 36 28 16 15 43 38 61 52 17 14 31 31 32 38 0 7 4 11 10 7 5
-3 16 5 25 19 9 13 27 27 41 30 14 4 22 11 19 16 -3 5 4 11 15 15 11 3 20 13
20 21 0 8 7 14 16 14 8 0 13 4 10 9 -3 5 7 13 22 19 15 5 42 24 60 42 18 17
32 28 32 23 0 -4 7 0 14 9 7 10 25 19 40 20 14 1 26 6 26 10 0 4 8 4 17 1 19
-8 -126 181 -166 214 -29 25 -28 25 -57 13z m-1054 -1233 c0 -2 -12 -14 -27
-28 l-28 -24 24 28 c23 25 31 32 31 24z"/>
<path d="M5721 6804 c0 -11 3 -14 6 -6 3 7 2 16 -1 19 -3 4 -6 -2 -5 -13z"/>
<path d="M4000 6626 c0 -2 8 -10 18 -17 15 -13 16 -12 3 4 -13 16 -21 21 -21
13z"/>
<path d="M4030 6586 c0 -2 8 -10 18 -17 15 -13 16 -12 3 4 -13 16 -21 21 -21
13z"/>
<path d="M6650 5623 c0 -5 5 -15 10 -23 7 -12 9 -10 7 8 -1 19 -17 33 -17 15z"/>
<path d="M6685 5589 c-4 -6 -5 -12 -2 -15 2 -3 7 2 10 11 7 17 1 20 -8 4z"/>
<path d="M6716 5587 c3 -10 9 -15 12 -12 3 3 0 11 -7 18 -10 9 -11 8 -5 -6z"/>
<path d="M6866 5565 c25 -19 40 -19 20 0 -8 8 -20 15 -27 15 -7 0 -4 -6 7 -15z"/>
<path d="M6735 5560 c-3 -5 -13 -7 -23 -4 -14 5 -15 4 -2 -5 20 -14 27 -14 34
4 6 17 0 20 -9 5z"/>
<path d="M1911 5544 c0 -11 3 -14 6 -6 3 7 2 16 -1 19 -3 4 -6 -2 -5 -13z"/>
<path d="M6750 5534 c0 -13 18 -39 24 -34 2 3 -2 14 -10 24 -8 11 -14 16 -14
10z"/>
<path d="M6850 5520 c0 -5 5 -10 11 -10 5 0 7 5 4 10 -3 6 -8 10 -11 10 -2 0
-4 -4 -4 -10z"/>
<path d="M6959 5503 c-13 -15 -12 -15 9 -4 23 12 28 21 13 21 -5 0 -15 -7 -22
-17z"/>
<path d="M6989 5493 c-13 -16 -12 -17 4 -4 16 13 21 21 13 21 -2 0 -10 -8 -17
-17z"/>
<path d="M6991 5454 c0 -11 3 -14 6 -6 3 7 2 16 -1 19 -3 4 -6 -2 -5 -13z"/>
<path d="M7101 5461 c-8 -6 -9 -11 -3 -15 6 -3 14 -1 17 5 9 14 2 20 -14 10z"/>
<path d="M7037 5449 c7 -9 10 -19 6 -22 -3 -4 -1 -7 5 -7 17 0 15 16 -5 31
-16 12 -17 12 -6 -2z"/>
<path d="M6822 5393 c12 -13 26 -23 32 -23 6 0 4 6 -5 13 -9 7 -14 17 -12 22
2 6 -6 11 -17 11 -19 0 -19 -1 2 -23z"/>
<path d="M7065 5399 c-4 -6 -5 -12 -2 -15 2 -3 7 2 10 11 7 17 1 20 -8 4z"/>
<path d="M6917 5313 c-4 -3 -7 -11 -7 -17 0 -6 5 -5 12 2 6 6 9 14 7 17 -3 3
-9 2 -12 -2z"/>
<path d="M6870 5290 c0 -5 5 -10 11 -10 5 0 7 5 4 10 -3 6 -8 10 -11 10 -2 0
-4 -4 -4 -10z"/>
<path d="M6675 5189 c-12 -18 3 -22 20 -5 14 14 14 16 1 16 -8 0 -18 -5 -21
-11z"/>
<path d="M6640 5181 c0 -5 5 -13 10 -16 6 -3 10 -2 10 4 0 5 -4 13 -10 16 -5
3 -10 2 -10 -4z"/>
<path d="M7095 5000 c-3 -6 1 -7 9 -4 18 7 21 14 7 14 -6 0 -13 -4 -16 -10z"/>
<path d="M7015 4960 c-3 -6 1 -7 9 -4 18 7 21 14 7 14 -6 0 -13 -4 -16 -10z"/>
<path d="M3526 4940 c-35 -11 -72 -44 -94 -85 -16 -27 -17 -102 -13 -862 2
-610 0 -833 -8 -833 -6 0 -11 -5 -11 -11 0 -5 6 -7 13 -4 6 4 3 -1 -7 -9 -11
-9 -34 -16 -51 -16 -18 0 -135 32 -261 71 -474 146 -479 148 -525 187 -36 31
-40 32 -24 10 34 -47 101 -73 440 -178 254 -78 343 -102 387 -102 43 0 61 -5
74 -19 19 -21 136 -59 699 -229 204 -62 390 -118 415 -126 25 -8 65 -14 89
-14 31 0 51 -6 66 -20 14 -13 153 -59 396 -131 356 -106 378 -111 461 -110 48
0 98 3 112 7 48 12 46 -7 -4 -47 -27 -21 -54 -39 -60 -39 -11 0 -14 -13 -10
-44 1 -12 -3 -16 -10 -11 -9 6 -9 2 -2 -12 7 -12 7 -25 1 -36 -7 -12 -6 -17 2
-17 7 0 8 -7 4 -17 -12 -27 -14 -96 -4 -115 5 -9 5 -19 1 -22 -11 -6 -10 -91
0 -102 4 -4 4 -12 -1 -18 -5 -6 -11 -22 -13 -36 -4 -36 -45 -51 -105 -40 -58
10 -222 58 -208 60 10 1 -64 24 -225 69 -41 12 -84 25 -95 30 -11 5 -49 19
-85 30 -36 11 -117 37 -180 58 -63 21 -117 38 -120 38 -22 5 -97 28 -105 33
-5 4 -19 8 -30 10 -11 1 -38 11 -61 22 -22 11 -47 20 -56 20 -8 0 -75 20 -149
44 -74 24 -195 63 -269 86 -74 24 -215 69 -312 102 -98 32 -182 58 -188 58 -6
0 -52 15 -103 33 -51 19 -146 51 -212 72 -110 34 -176 56 -370 122 -38 13 -85
33 -103 44 -53 31 -49 15 5 -19 50 -32 375 -142 1073 -367 433 -139 1124 -363
1235 -400 247 -84 556 -176 604 -181 113 -12 187 19 576 246 44 25 202 116
350 200 149 85 272 157 275 161 3 3 37 23 75 43 39 20 113 63 165 95 52 32
163 97 245 146 83 48 173 102 200 120 28 17 77 47 110 65 123 68 223 140 244
176 13 21 26 70 33 117 12 95 6 370 -10 410 l-12 28 -33 -33 c-39 -39 -86 -66
-707 -405 -261 -143 -657 -360 -880 -483 -481 -265 -508 -278 -585 -286 -70
-6 -69 -6 -519 126 -273 81 -321 98 -335 119 -14 23 -17 114 -21 876 -6 922
-6 910 -63 1006 -40 66 -95 105 -183 130 -150 42 -864 219 -881 218 -10 0 -31
-5 -47 -9z m537 -124 c272 -70 461 -123 482 -136 47 -29 81 -76 108 -146 21
-58 21 -70 22 -574 l1 -515 -6 465 c-5 433 -6 411 -7 -317 -1 -430 -5 -793 -9
-807 -3 -14 -11 -26 -18 -27 -6 0 -2 -5 9 -10 15 -7 9 -8 -25 -6 -25 2 -232
60 -460 130 -746 227 -690 208 -705 236 -10 21 -14 198 -16 871 l-4 845 24 39
c27 42 68 65 121 66 19 0 236 -52 483 -114z m614 -1488 c-3 -8 -6 -5 -6 6 -1
11 2 17 5 13 3 -3 4 -12 1 -19z"/>
<path d="M3549 4013 c-13 -15 -12 -15 9 -4 26 14 74 7 110 -15 l23 -15 -21
-29 c-18 -26 -21 -44 -21 -165 -1 -132 -1 -135 -23 -135 -12 0 -30 6 -41 13
-11 7 -31 14 -44 15 -23 1 -22 -1 14 -38 65 -67 143 -91 165 -50 6 12 9 85 7
192 -3 198 -7 209 -76 233 -57 19 -85 19 -102 -2z"/>
<path d="M3512 3715 c0 -16 2 -22 5 -12 2 9 2 23 0 30 -3 6 -5 -1 -5 -18z"/>
<path d="M6964 4934 c-18 -14 -18 -15 4 -4 12 6 22 13 22 15 0 8 -5 6 -26 -11z"/>
<path d="M6920 4920 c-9 -6 -10 -10 -3 -10 6 0 15 5 18 10 8 12 4 12 -15 0z"/>
<path d="M6810 4870 c-9 -6 -10 -10 -3 -10 6 0 15 5 18 10 8 12 4 12 -15 0z"/>
<path d="M5850 4851 c0 -6 4 -13 10 -16 6 -3 7 1 4 9 -7 18 -14 21 -14 7z"/>
<path d="M6690 4815 c-14 -8 -20 -14 -14 -15 5 0 19 7 30 15 24 18 16 19 -16
0z"/>
<path d="M6564 4754 c-18 -14 -18 -14 6 -3 31 14 36 19 24 19 -6 0 -19 -7 -30
-16z"/>
<path d="M6505 4730 c-19 -8 -19 -9 2 -9 12 -1 25 4 28 9 7 12 -2 12 -30 0z"/>
<path d="M6460 4710 c-9 -6 -10 -10 -3 -10 6 0 15 5 18 10 8 12 4 12 -15 0z"/>
<path d="M6360 4665 c-25 -13 -38 -24 -30 -24 8 -1 33 10 55 24 51 31 34 32
-25 0z"/>
<path d="M6285 4631 c-3 -5 -1 -12 4 -15 5 -3 11 1 15 9 6 16 -9 21 -19 6z"/>
<path d="M6236 4605 c-22 -16 -10 -20 14 -5 9 6 17 5 23 -3 6 -9 7 -8 5 2 -6
21 -20 23 -42 6z"/>
<path d="M6170 4575 c-14 -8 -20 -14 -15 -14 6 0 21 6 35 14 14 8 21 14 15 14
-5 0 -21 -6 -35 -14z"/>
<path d="M6120 4550 c-9 -6 -10 -10 -3 -10 6 0 15 5 18 10 8 12 4 12 -15 0z"/>
</g>
</svg>
